<svg aria-hidden="true" style="position: absolute; width: 0; height: 0; overflow: hidden;" version="1.1" xmlns="http://www.w3.org/2000/svg" xmlns:xlink="http://www.w3.org/1999/xlink">
<defs>
<symbol id="search" viewBox="0 0 32 32">
<path   d="M30.2 28.232l-9.275-9.275c1.439-1.861 2.218-4.136 2.218-6.529 0-2.864-1.118-5.55-3.139-7.575s-4.714-3.139-7.575-3.139c-2.861 0-5.554 1.118-7.575 3.139-2.025 2.021-3.139 4.711-3.139 7.575 0 2.861 1.118 5.554 3.139 7.575 2.021 2.025 4.711 3.139 7.575 3.139 2.393 0 4.664-0.779 6.525-2.214l9.275 9.271c0.027 0.027 0.059 0.049 0.095 0.064s0.074 0.022 0.112 0.022c0.039 0 0.077-0.008 0.112-0.022s0.068-0.036 0.095-0.064l1.557-1.554c0.027-0.027 0.049-0.059 0.064-0.095s0.022-0.074 0.022-0.112-0.008-0.077-0.022-0.112c-0.015-0.035-0.036-0.068-0.064-0.095zM18.086 18.086c-1.514 1.511-3.521 2.343-5.657 2.343s-4.143-0.832-5.657-2.343c-1.511-1.514-2.343-3.521-2.343-5.657s0.832-4.146 2.343-5.657c1.514-1.511 3.521-2.343 5.657-2.343s4.146 0.829 5.657 2.343c1.511 1.514 2.343 3.521 2.343 5.657s-0.832 4.146-2.343 5.657z"></path>
</symbol>
<symbol id="bell" viewBox="0 0 23 32">
<path d="M22 24.727h-0.818v-11.591c0-4.81-3.556-8.785-8.182-9.447v-1.326c0-0.753-0.61-1.364-1.364-1.364s-1.364 0.61-1.364 1.364v1.326c-4.626 0.661-8.182 4.636-8.182 9.447v11.591h-0.818c-0.603 0-1.091 0.488-1.091 1.091v1.091c0 0.15 0.123 0.273 0.273 0.273h7.364c0 2.107 1.711 3.818 3.818 3.818s3.818-1.711 3.818-3.818h7.364c0.15 0 0.273-0.123 0.273-0.273v-1.091c0-0.603-0.488-1.091-1.091-1.091zM11.636 28.818c-0.903 0-1.636-0.733-1.636-1.636h3.273c0 0.903-0.733 1.636-1.636 1.636zM4.545 24.727v-11.591c0-1.895 0.736-3.675 2.076-5.015s3.119-2.076 5.015-2.076c1.895 0 3.675 0.736 5.015 2.076s2.076 3.119 2.076 5.015v11.591h-14.182z"></path>
</symbol>
<symbol id="dropdown" viewBox="0 0 48 32">
<path d="M44.523 2.75h-41.050c-1.231 0-1.919 1.3-1.156 2.187l20.525 23.8c0.587 0.681 1.719 0.681 2.312 0l20.525-23.8c0.762-0.887 0.075-2.187-1.156-2.187z"></path>
</symbol>
<symbol id="info" viewBox="0 0 32 32">
<path d="M16 0.727c-8.434 0-15.273 6.839-15.273 15.273s6.839 15.273 15.273 15.273c8.434 0 15.273-6.839 15.273-15.273s-6.839-15.273-15.273-15.273zM16 28.682c-7.002 0-12.682-5.68-12.682-12.682s5.68-12.682 12.682-12.682c7.002 0 12.682 5.68 12.682 12.682s-5.68 12.682-12.682 12.682z"></path>
<path d="M14.364 10c0 0.434 0.172 0.85 0.479 1.157s0.723 0.479 1.157 0.479 0.85-0.172 1.157-0.479c0.307-0.307 0.479-0.723 0.479-1.157s-0.172-0.85-0.479-1.157c-0.307-0.307-0.723-0.479-1.157-0.479s-0.85 0.172-1.157 0.479c-0.307 0.307-0.479 0.723-0.479 1.157zM16.818 13.818h-1.636c-0.15 0-0.273 0.123-0.273 0.273v9.273c0 0.15 0.123 0.273 0.273 0.273h1.636c0.15 0 0.273-0.123 0.273-0.273v-9.273c0-0.15-0.123-0.273-0.273-0.273z"></path>
</symbol>
<symbol id="message" viewBox="0 0 32 32">
<path d="M14.364 16c0 0.434 0.172 0.85 0.479 1.157s0.723 0.479 1.157 0.479c0.434 0 0.85-0.172 1.157-0.479s0.479-0.723 0.479-1.157c0-0.434-0.172-0.85-0.479-1.157s-0.723-0.479-1.157-0.479-0.85 0.172-1.157 0.479c-0.307 0.307-0.479 0.723-0.479 1.157zM21.182 16c0 0.434 0.172 0.85 0.479 1.157s0.723 0.479 1.157 0.479c0.434 0 0.85-0.172 1.157-0.479s0.479-0.723 0.479-1.157c0-0.434-0.172-0.85-0.479-1.157s-0.723-0.479-1.157-0.479-0.85 0.172-1.157 0.479c-0.307 0.307-0.479 0.723-0.479 1.157zM7.546 16c0 0.434 0.172 0.85 0.479 1.157s0.723 0.479 1.157 0.479c0.434 0 0.85-0.172 1.157-0.479s0.479-0.723 0.479-1.157c0-0.434-0.172-0.85-0.479-1.157s-0.723-0.479-1.157-0.479-0.85 0.172-1.157 0.479c-0.307 0.307-0.479 0.723-0.479 1.157zM30.087 10.082c-0.77-1.831-1.875-3.474-3.283-4.885-1.398-1.403-3.058-2.519-4.885-3.283-1.875-0.788-3.866-1.186-5.918-1.186h-0.068c-2.066 0.010-4.067 0.419-5.949 1.224-1.812 0.772-3.456 1.89-4.841 3.29-1.394 1.408-2.489 3.044-3.245 4.868-0.784 1.889-1.18 3.897-1.169 5.962 0.012 2.368 0.572 4.7 1.636 6.815v5.182c0 0.416 0.165 0.815 0.459 1.109s0.693 0.459 1.109 0.459h5.185c2.115 1.065 4.447 1.625 6.815 1.636h0.072c2.042 0 4.023-0.395 5.888-1.169 1.818-0.755 3.472-1.858 4.868-3.246 1.408-1.394 2.516-3.024 3.29-4.841 0.805-1.882 1.214-3.883 1.224-5.949 0.010-2.076-0.392-4.091-1.186-5.986zM24.936 25.014c-2.39 2.366-5.56 3.668-8.935 3.668h-0.058c-2.056-0.010-4.098-0.522-5.901-1.483l-0.286-0.153h-4.8v-4.8l-0.153-0.286c-0.961-1.803-1.473-3.846-1.483-5.901-0.014-3.399 1.285-6.59 3.668-8.993 2.38-2.403 5.56-3.733 8.959-3.747h0.058c1.705 0 3.358 0.331 4.916 0.985 1.52 0.638 2.884 1.555 4.057 2.727 1.169 1.169 2.090 2.536 2.727 4.057 0.661 1.575 0.992 3.245 0.985 4.97-0.020 3.395-1.353 6.576-3.753 8.956z"></path>
</symbol>
<symbol id="users" viewBox="0 0 35 32">
<path d="M30.409 23.409h-2.727v-2.727c0-0.15-0.123-0.273-0.273-0.273h-1.636c-0.15 0-0.273 0.123-0.273 0.273v2.727h-2.727c-0.15 0-0.273 0.123-0.273 0.273v1.636c0 0.15 0.123 0.273 0.273 0.273h2.727v2.727c0 0.15 0.123 0.273 0.273 0.273h1.636c0.15 0 0.273-0.123 0.273-0.273v-2.727h2.727c0.15 0 0.273-0.123 0.273-0.273v-1.636c0-0.15-0.123-0.273-0.273-0.273zM12.733 14.082c-0.031-0.297-0.048-0.597-0.048-0.9 0-0.542 0.051-1.070 0.147-1.585 0.024-0.123-0.041-0.249-0.153-0.3-0.464-0.208-0.89-0.494-1.258-0.856-0.434-0.421-0.775-0.927-1.002-1.487s-0.335-1.161-0.317-1.765c0.031-1.094 0.47-2.134 1.238-2.918 0.842-0.862 1.974-1.333 3.177-1.319 1.088 0.010 2.138 0.43 2.932 1.173 0.269 0.252 0.501 0.532 0.695 0.832 0.068 0.106 0.201 0.15 0.317 0.109 0.6-0.208 1.234-0.355 1.885-0.423 0.191-0.020 0.3-0.225 0.215-0.395-1.108-2.192-3.372-3.706-5.99-3.747-3.777-0.058-6.927 3.041-6.927 6.818 0 2.141 0.985 4.050 2.53 5.301-1.084 0.501-2.083 1.193-2.949 2.059-1.868 1.865-2.925 4.326-2.993 6.954-0.001 0.036 0.005 0.073 0.019 0.106s0.033 0.065 0.059 0.091c0.025 0.026 0.056 0.047 0.089 0.061s0.070 0.021 0.106 0.021h1.913c0.147 0 0.269-0.116 0.273-0.263 0.065-1.977 0.866-3.828 2.274-5.233 1.002-1.002 2.23-1.698 3.569-2.035 0.13-0.037 0.218-0.164 0.201-0.3zM28.091 13.182c0-3.73-2.997-6.76-6.713-6.818-3.777-0.058-6.924 3.041-6.924 6.818 0 2.141 0.989 4.050 2.53 5.301-1.095 0.508-2.092 1.205-2.945 2.059-1.868 1.865-2.925 4.326-2.993 6.951-0.001 0.036 0.005 0.073 0.019 0.106s0.033 0.065 0.059 0.091c0.025 0.026 0.056 0.047 0.089 0.061s0.070 0.021 0.106 0.021h1.909c0.147 0 0.269-0.116 0.273-0.263 0.065-1.977 0.866-3.828 2.274-5.233 1.469-1.469 3.419-2.277 5.499-2.277 3.764 0 6.818-3.051 6.818-6.818zM24.358 16.267c-0.825 0.825-1.919 1.278-3.085 1.278s-2.26-0.453-3.085-1.278c-0.412-0.41-0.737-0.898-0.957-1.435s-0.329-1.114-0.322-1.694c0.010-1.118 0.457-2.199 1.237-3 0.818-0.839 1.913-1.306 3.082-1.319 1.156-0.010 2.277 0.44 3.102 1.248 0.845 0.828 1.309 1.936 1.309 3.116-0.003 1.166-0.457 2.26-1.282 3.085z"></path>
</symbol>
</defs>
</svg>
